<svg id="Layer_1" data-name="Layer 1" xmlns="http://www.w3.org/2000/svg" viewBox="0 0 40 31.57"><defs><style>.cls-1{fill:#775927;}.cls-2{fill:#c2973d;}.cls-3{fill:#fff;}.cls-4{fill:#030a13;stroke:#775927;stroke-miterlimit:10;stroke-width:0.28px;}</style></defs><polygon class="cls-1" points="17.28 23.84 19.95 28.23 22.75 23.84 36.97 26.03 23.77 27.29 19.95 31.57 15.89 27.29 3.43 26.27 17.28 23.84"/><path class="cls-2" d="M27.84,31.61s10.34-10.86,10.7-15.23l4.17-3s-4,12.14-9.31,16.48l9,.87,0-4L45,33.3Z" transform="translate(-5 -9.22)"/><path class="cls-2" d="M15.6,26,22,31.73,5,33.33s4-15.2,0-19.91l4.41,3.26s.81,10-.45,13.69l7.94-.66Z" transform="translate(-5 -9.22)"/><path class="cls-3" d="M25,32.25A14.36,14.36,0,0,0,20.18,24a7.66,7.66,0,0,1-2.54-3.75c-1.39-4.5,1.8-7,4.61-9.12.42-.33.83-.64,1.2-1A2.41,2.41,0,0,1,25,9.62a2.38,2.38,0,0,1,1.53.56q.57.46,1.23,1c2.66,2,5.68,4.36,4.78,8.44A8,8,0,0,1,29.7,24,14.57,14.57,0,0,0,25,32.25Z" transform="translate(-5 -9.22)"/><path class="cls-2" d="M25,10a2,2,0,0,1,1.27.46c.38.31.8.64,1.24,1,2.56,2,5.48,4.21,4.63,8a7.56,7.56,0,0,1-2.69,4.18,14.34,14.34,0,0,0-4.45,7,14.14,14.14,0,0,0-4.55-7A7.21,7.21,0,0,1,18,20.13c-1.31-4.23,1.76-6.6,4.47-8.68.42-.33.84-.65,1.21-1A2.07,2.07,0,0,1,25,10m0-.81a2.81,2.81,0,0,0-1.8.64c-2.78,2.31-7.64,5-5.94,10.52a8.13,8.13,0,0,0,2.68,3.94C25,28.37,25,35.52,25,35.52s0-7.12,5-11.21a8.42,8.42,0,0,0,3-4.64c1.11-5-3.48-7.61-6.15-9.81A2.79,2.79,0,0,0,25,9.22Z" transform="translate(-5 -9.22)"/><path class="cls-4" d="M25,27.8s5.19-7.09,5.19-10.47c0-1-1.75-2.62-3.22-3.83a3.13,3.13,0,0,0-3.94,0c-1.47,1.21-3.22,2.85-3.22,3.83C19.81,20.71,25,27.8,25,27.8Z" transform="translate(-5 -9.22)"/></svg>